/* XPM */
static char *RlVORE8_[] = {
/* columns rows colors chars-per-pixel */
"64 64 45 1 ",
"  c #494949",
". c #515151",
"X c gray34",
"o c #5A5A5A",
"O c #5F5F5F",
"+ c #606060",
"@ c #656565",
"# c DimGray",
"$ c #6C6C6C",
"% c #727272",
"& c #777777",
"* c gray48",
"= c gray49",
"- c #808080",
"; c #848484",
": c #898989",
"> c gray55",
", c #939393",
"< c #959595",
"1 c #9A9A9A",
"2 c #9D9D9D",
"3 c #A0A0A0",
"4 c gray65",
"5 c #A9A9A9",
"6 c #AFAFAF",
"7 c #B2B2B2",
"8 c #B6B6B6",
"9 c gray73",
"0 c gray",
"q c gray76",
"w c gray77",
"e c #C8C8C8",
"r c #CECECE",
"t c LightGray",
"y c #D7D7D7",
"u c #D8D8D8",
"i c gray87",
"p c gray89",
"a c #E4E4E4",
"s c gray92",
"d c gray93",
"f c #F3F3F3",
"g c #F4F4F4",
"h c gray98",
"j c white",
/* pixels */
"1spaaapuiiiuputytytrew9642,:$-><>=$##&-><34689qqer<isssadatwqqey",
"wjjjjjjjjjjjjjjjjjjjjjjjjjjjijjjjjjjjjjjjjjjjjjjjj0jjjjjjjjjjjjj",
"7uyuuttyyyyyyuuipiyteeww9622>,>;-=---$ .+#&=-:,132;qq0weererttuu",
"aasddddfdfdgpigdgdsddfddsirrertyuppiipsdfgggghgggdfdpssssasassdd",
"jjhfgfdddddgyydapapppsgduassdddfdffggggggfddssssssdfpdfdggddssdf",
"jju0w09000wwq00090qqwrssttrt88tqq98752<-;--=*===-->,,>&>12244725",
"jjjjjjjjjjjjjjjjjjjjjjhhjjjjgfjjjjjjjjjjjjjjjjjhhjhhhjgjjjjjjjaa",
"yiiiis8*;--4gdeq5&&&$%@+O+O+#$+O+#$#$&$$&=-=-,<133331,,<2:48qt99",
"ertuupshjjjjjhggghjjjjhhhhhdhgggggggggfftfffhjjjjjjjjjjjjht0qwee",
"jjjjjjattttyyuiiipppaaddffgighhgggddsapieytrreweeeeytrryysjjjjjj",
"7809qw2><<212:%-=&%#$@$$%%%%**--==--=---::><135680w579761>863344",
"jjjjjjjjjjjjjapjjjjjjjjjjjjjjjjjjjjjjjjjjjjjjjjjjjhsfggfgjjhhhgj",
"uuupuy02>:::>&&122222222224423331<11<>>:-*%@o+OoXXXoO+$%-ysasasa",
"9qettttrtrtteeewq09090000w8*eeerttuuuuuuipparajjjjjjjjjjjq677777",
"gdapitw989qeryuiuppppiiiyy0=q99090qqqwqqqq097909wwryuppsdhjjjjhg",
"<1357890q9643121<<2<>,=&>,12<1<<<<>>>>>>>>>>>;=,>:;-==&%%%o@%$%&",
"jjjjjjjjjjjjjjjjjjjjjjdajjjjjjjjjjjjjjjjjjjjjgpjjjjjjjjjjjtsjjjj",
"0887653$@@@$&:160euaafuefaappiuytree008865432<>11<1<234569359888",
"qettuiajjjgat062<::;-=%@#%$@$#$$%&&o=:>1244667777888999009887900",
"4579qwwwq09877666679wtpfhjjjjjjjjjjsjjjjjjjjhhgfdapuyeq98765541<",
"wq08642<<<,<124=311>;%#@@#%%&&%%$##$+++OOOo+O@@##%%*-:,136949www",
"jjjjjjjjjjjjjjjajjjjjjjjfspuipuiaasdgghjjjjjjjjjjjjjjjjjjjjjjjjj",
"----;;;;;;-:>13680etupaffjjjayyttew09664422<<,:;;-:::>>=-;&%==--",
"y10ttuuuuuttrrweeqweewtuifhjr6947yewwwqwrerytyyyuu08iupdfgatyuii",
"jtdjjjhhjjjjjjjjjjjjjjjjjjjjjjjapjjjjjjjjjjjjjjjjjfsdaaippsgjjjj",
"d7qr9=+#%%&%%$%%&&=;:,>,<12422523qwqqq00009900660999621:-*&%ujjj",
"ytrahjjjjhggfdsd7tsasapppppipppasaaapppaasdfgjadjjjjjjjjjjjjjdii",
"wrt54457rjjjjjjjaeyteryttuyiiuyyyyuyteq086531>:;*&==--><<1231wye",
"jjjaypiigjjjjjjjjgggffddsssaaip,9aiiiipupiyytrewww90qqwwette0djj",
"sw$>>;=&@@$%%%&;;<3574990qwerturijjjjdajji6776775&52211<1<273>10",
"jpqewpsffdddssdfgghja9jfhjjjjjjjjjjjjp0jhjjjjjjjj7jjjjjjjhayrrid",
"pggggdsaaaasasaapiipqyjjgssdssiyueq87>$7qdjytuyee=9ttyupsdgjjjjg",
";*##@#&->1357800w91tyhjjdrwq9887=ewrtyuipfjy0wq87643221<<<>>=;>-",
"jjjjjjjjjjjjjjjjjstjhjjjjjjjjjjh6jjjjjjjjjjjjjjjjjjjjjjjjjjjsdjj",
"2333<&$%&=:<2367922ewertrttyuupy2iuiiiuiuiiuuupppppyrrrrw9994221",
"eeq0wtupaasassasaasiupipiiiippppiipaaasssssdsrdddddaipssprq00qwt",
"hhjjjjhhhhghghgghhgffjhhhhhhghhhjjjhhhhgghghdrgffdddfdsssssadggg",
"0751,:;$=*=*====*==*==:234578q3qgjs9q098888876798877766866555100",
"jjjjjjhujjjjjjjjjjjjjfsjjjjjjjuhjjjjjjjjjjjjjjjjjjjjjjjjjjjjjsjj",
">12541<>4455555455434<5ewryyyp0upaasddgjjpyyyreeq098765774>*%*==",
"ddsst88qqwerrewq7775434234458989qweryrsjjq7900wweerrttyi9eaipsss",
"jjhhfdsaddfgjjjjsfjjjjjjjjjjjjjjjjjjjjjjjjjjjjjjjjjjjjjjdgjdgjjj",
"=-::;=&#@O+O+##%%%=;::><11344667880009wwwqq988866345651;&#O##$%%",
"jjjjjjjjjjjjjjtjjhgggffdfdfdffffghhhjjjjjjjjjjhgg0uasassfhhjjjjj",
"66666556655554,yiassdfddddssasassaasaaapipiuuuyuiqyuuippiq008765",
"qwerreq9866431<,>-**;=:<1<1134447780qqewwrrererrrwq08765527&2988",
"uuiipashjjjjjjjjjjjhjahjjjjjjjjjjhgdsapiiiipipaasdffhhhhgda,0trr",
"<1>,::;112<,>::-;;:;;=:>>>->1<234344466898989987665656,>,:;;;;>,",
"jjjjjjjhfghjjjjjjjjjjjjjjhujjjjjjjjjjjjjjjjjjjjjjjjjjjyhjjjjjjjj",
"ppiyyretyyttyyyyyyuiiiiiyywyyrerewwq008988766554446788:0tisfddsd",
"**%&:-;::>>:><=:1<124666679988000qqwertyuipdpdhhjjhgfspt<>++#@O@",
"jjjhjjjhfsfffgysjjhfdautw0876554689qetuippsaypssasddfggjajjjjjjj",
">>>;=%Xo*$%$#+OO+oooO#&;,35<900977642<>:-;-=-;;-;>:;;:;-*#@&-;;:",
"yiadfhhgjjjjjjjjjjjjjjjjjjjjjjjjjjjjjjjjjjjjjjjjjjjjjjjjjhuwtrer",
"trewww95eqwwq098866422<,:>:-->><,<,,>:-===-=;:><1245680wtajjhaai",
"9986675453332245792qwwewrrrtrrree3,ewrypasddsspurw><1:;<4wdjp465",
"jjjjjjjjjjjjjjjjjjdjjjjjjjjjjjjjjsyjjjjjjjjjjjjjjjshjjjjjjjjjjjj",
"eweettewq08632:25331<>wjhhjjjjjjgq8utrrwq0776431:;:=&$&&=<466788",
"piiuuuuppadfghyhjjjjjjjjjjhdsassatrerrryyiassapp05spuiaddpiuuiii",
"putreq975443121,,1<1<1,:331erwwwerertryw0sjjjjjjgruyiuyiipisaapa",
"uyyttuuyureq0909qewereeq00rhjjjjjjjjjjjjjjjjjjjjjhffffdddsaaaiur",
"jjjjjahjj0322225;$<,<11<,254569eugj9:-&=;--:;;>1<13563700wwetryu",
"jjjhj9ajjjjjjjjjiqjhjjjjjsr90taddjje9tipaaasssddfdffg5fhhjjjjjjj",
"ie969=3weyiasfddu<siiuiuipsdaipr0truipiiupsaaapppiuur1trtryupaaa"
};
