/* XPM */
static char *_581a3e705ed4b9f822b54e463e279e10XqlxF6z7CxxCrBH[] = {
/* columns rows colors chars-per-pixel */
"64 64 64 1 ",
"  c black",
". c gray2",
"X c #090909",
"o c gray5",
"O c #111111",
"+ c gray9",
"@ c gray10",
"# c #1D1D1D",
"$ c #222222",
"% c gray14",
"& c #282828",
"* c #2F2F2F",
"= c #323232",
"- c gray21",
"; c gray23",
": c #3E3E3E",
"> c gray26",
", c #464646",
"< c #494949",
"1 c gray31",
"2 c #535353",
"3 c #565656",
"4 c gray35",
"5 c gray36",
"6 c #626262",
"7 c gray40",
"8 c gray42",
"9 c #6F6F6F",
"0 c #727272",
"q c gray46",
"w c #7B7B7B",
"e c gray50",
"r c gray51",
"t c gray52",
"y c gray54",
"u c #8D8D8D",
"i c #909090",
"p c #979797",
"a c #989898",
"s c #9F9F9F",
"d c gray63",
"f c #A4A4A4",
"g c #A9A9A9",
"h c gray68",
"j c gray70",
"k c #B7B7B7",
"l c gray73",
"z c gray75",
"x c #C1C1C1",
"c c gray77",
"v c #CBCBCB",
"b c gray81",
"n c #D2D2D2",
"m c gray83",
"M c gray86",
"N c gainsboro",
"B c gray88",
"V c #E6E6E6",
"C c #EAEAEA",
"Z c gray93",
"A c #F1F1F1",
"S c #F4F4F4",
"D c #F8F8F8",
"F c white",
/* pixels */
"fZVVVVVBBBBBBNMMMMmmnvxlhfspeypsaywqqruadghkzxcbnndBZCCZZVmbvvbM",
"vFFFFFFFFFFFFFFFFFFFFFFFFFFFBFFFFFFFFFFFFFFFFFFFFFcFFFFFFFFFFFFF",
"lNNNBMMMMMMNMMNBVBNmbnbvxlggpaaiyuiuye3590etyuipaprjgajzzxxxvmNN",
"CCZCNNCAASASBMACVBNmmmmmmckjjjkzcmMbxxckghjhayq4>O   .:333336lCZ",
"FFCdwtpgkzzzfisyqq02,111<<:+   :3ra8-                        :MA",
"FDa                                                          .pk",
"FC6                                                          <nV",
"Mx+                      =2;o           :<11228ewww3o @89-   1jx",
"bf.   O,32%  1hkvvbvbvvhgahhzlhhhhhgjxbbmMzaw9tcCCCh% =zm0   -zb",
"Df    6bVB7  qFDFFFFFFDNAAAADFSSSDDDSFFSkriglmVAFFFl* =xB6   +BF",
"j0    qCFD<  7MMMnzkkjstyuuut637yuyyskkljlcvbmMchpy7O =xN1   .ph",
"Sa    wCFD:  O=*=*%$$$@oooooX   oooo+$$%*=-===*&#+o.  %jm&    xD",
"Mr    wCFD:                                           #fn     jV",
"lw    wVFD:  o######-;;;;;;;;;;;;%#+                  =xb     ul",
"Zi.   rZFS: o7fdddddxcccccxcccccxgdaeq07662<<,276794O =cb     cS",
"a7    aSbC4 #dFFFFFFFFFFFFFFFFFFFFFFFFSCCVmbbbmCCNMh& *xB4    0t",
"Fk    dDabw.#dFFFFFFFFFFFFFFFFFFFFFFFFFFFFFFFFFFFACk* *xSs    VF",
"xu    dSscq.#dFFFFFFFFFFFFFFFFFFFFFFFFFFFFFFFFFFFFFl* =xAp    gz",
"vh    sSsxw.o9hhhghhhjcbvbNAFFFAbbbvbvbvvbbbbcjhhghu$ OpZe    hc",
"hd.   sDdgwX.:epppppi9qeeeypcDFbreweeeeeweetfdapppju$ ouCw    pd",
"vk@   sSzfaO@iZZAZAAAVVVVVVVZFFAVVVVVVVVVVVVZAAAZASk& %kCw    kb",
"FC4   sDxhd+#dFFFFFFFFFFFFFFFFFFFFFFFFFFFFFFFFFFFFFl* =xB5   ;VF",
"ur=   sSAVgO$ammFFFFFFFFFFFFFFFFFFFFFFFFFFFDFSSDSDFl* =xN<   *ry",
"Mp1   aSFDhO#ysjFDDFFFFFFFFFFFFFFFFDSAZCVCnvckhgjbVk* *xN1   2bB",
"Fbt   wVFFg+OwxxxxbNBBBVZZASSSASASCMnxgaypasgxzznBCl* =xM;   5ZF",
"Zh9   wCFDhOo7fffffffdglcbNVVBnBBVBCSFFFFFFFFFFFFFFl& =xb    5CF",
"Mbq   wCFFhO#fFFFFFFFFFFFFFFFFFFFFFFFFFFFFFFSZFFFFFv- *xv    4nB",
"bve   wVFDhO#dFFFFFFFFFFFFFFFFFFFFFFFFFFFFFFSCFFFFFN: ;bb    <vn",
"FSh   wCFDhO#dFFFFFFFFFFFFFFFFFFFFFFFFFFFFFFFFFFFFFN: >Bb    3CF",
"Zv2   wVFFhO#dFFFFFFFFFFFFFFFFFFFFFFFFFFFFFFFFFFFFFN: ,Mk    -ax",
"FBu   wCFDhO#dFFFFFFDFFFFFFFDFFFFDFFFFFFCBMcxzdsssfa& ,mg    2nA",
"VAj   wCFDhO%epipippppippippppippapppe6746reew0yddde@ ,Mh    5CS",
"ir2   qVFDhO$ibbbnbnbnbbbnbnbbbbnZZAAZCCCZAAAAAASSDk& ,Mg    =yu",
"FDk   5fCFgO-lFFFDFDFDFFFDFDFFDFFFFFFFFFFFFFFFFFFFFl* ,mh    4CF",
"fhy   1aZFfo;xFFFFFFFFFFFFFFFFFFFFFFFFFFFFFFFFFFFFFz* ,mh    :af",
"bng   1yCDe ;cFFFFFFFFFFFFFFFFFFFFFFFFFDDAZZZZZCADDz* ,Mh    6cm",
"DFm   2tCFe ;cFFFFFFFFFFFFFFFDSACBMmbclgfarrereepflu$ ,mh    uCS",
"clp   1aZDe -lASAASAAABBmbvlkdpy07>4>%&&&*=****=*&&%  ,Mh    4zx",
"FFm   2aZDe $wirrrrrre7ew57770yydfhxcccccccvcccccccg* ,mg    rAF",
"pdu   <dAFe =dcllllllllvbnnBBCASFFFFFFFFFBvnFFFFFFFB: ,Mj    <ry",
"ZAv   1jSFe <NFFFFFFFFFFFFFFFFFFFFFFFFFNuwrgSFFFFFFN: ;bz    tBZ",
"FFm   <mFDe 2VFFFFFFFFFFFFFFFFFFFFFFFFFAxzvBDFFFFFFM: =lj    uAF",
"yuw   <NFDe =lFFFFFFFFFFFFFFFFFFFFFFFFFFDDDDFDDFFDFM: =kg    >wr",
"FFm   <NFDe.#dFDSDSSSAAAAAAZAASFFFFFFSVnnbnchgggjcnj= =kh    uAF",
"kka   <MFDe.Orbzgdtre<,,,,,138hSFFFFVt11111<<<<<2451o =lh    8gj",
"cbj   <MFDe.X5pdkzzzzzzzzzznCSFFFFFFDVNNNMNNNNNBADDM: *lx    8kz",
"NBl   <MFDe.#dFFFFFSNMNNNSFFFFFFFFFFFFFFFFFFFFFFFFFV> $gb    qcm",
"ddr   <MFDe.#fFFFFFma>>:0NFFFFFFFFFFFFFFFFFFFFFFFFFS< @sn    2is",
"FFM   <MFDe #dFFFFFCNjsdcAFFFFFFFFFFFFFFFFFFFFFFFFFD< +sM:   gDF",
"VBz   2MFDe.#dFFFFFFFFFFFFFFFFFFFFFFFFFFFFFFDZZZZZDF1 +aCq   hCZ",
"yt8   9VFDe.#dFFFFFFFFFFFFFFFFFFFFFFSCNbzhautqqqq0ts* +sSa   28q",
"FFm   wVFDe.OemVVBMcccjddddstqqwwqwq8631-%         .  +aDf   kDF",
"aaw   wCFDe. %,221<:;;&####+               .          +aFl   7ui",
"NBz   eCFDwX  .              OO+O++#$##%&&2000q00000; @aFx   rvm",
"Mbi   aSFDeX <pee0:$+<6<%=-;3ahhhhhcnnnCSAZZCCVCCZAArX+aFn:  rMB",
"xzy   dDFDeX qFDDNzjpdakxmBSDFFFFFFDDDDAANmxkapuflZFg@+aFM4  6hk",
"FDk   pBVB0. 6NCNcxMBVVBNMMMMMMMMMmcllli0ypklbMMMMMMa++uAm8  eCF",
"nvi   :333%  O>333333331%                             .1yr<  Oel",
"VNp                                                           *n",
"Bnw                                                           &m",
"Bmp      X%                                                  Xeb",
"FFZa36eifiurte0q4>2<<-====;--;:><7r63434545665688wyew965<:>3qacM",
"FFFABjmZDFFFFFDDMzZZCBVBBnlghznmnVZxknMNBVVVVVCCZAAAAhVCBBBVADFF",
"BnxlxyhbnMBCZAAANdZBBBBBBCZZCVBmcmnBBVVBNVCVCVVCBBBNmfmmMmMNVCCC"
};
