/* XPM */
static char *c2fd93b56b774d278acc796ed1bd4c3bMLhCrFojKsbeRWT9[] = {
/* columns rows colors chars-per-pixel */
"64 64 53 1 ",
"  c gray8",
". c #1D1D1D",
"X c gray14",
"o c gray15",
"O c #282828",
"+ c #2F2F2F",
"@ c gray19",
"# c #343434",
"$ c #494949",
"% c #4B4B4B",
"& c #565656",
"* c gray34",
"= c gray37",
"- c gray39",
"; c #676767",
": c gray42",
"> c #6F6F6F",
", c #717171",
"< c #777777",
"1 c gray47",
"2 c gray49",
"3 c #808080",
"4 c gray52",
"5 c #888888",
"6 c gray55",
"7 c gray57",
"8 c gray58",
"9 c gray60",
"0 c #9F9F9F",
"q c #A2A2A2",
"w c #A4A4A4",
"e c gray66",
"r c #AFAFAF",
"t c #B2B2B2",
"y c #B4B4B4",
"u c #BBBBBB",
"i c gray",
"p c #C1C1C1",
"a c gray78",
"s c #CBCBCB",
"d c gray80",
"f c #D0D0D0",
"g c #D5D5D5",
"h c #DADADA",
"j c gainsboro",
"k c #E1E1E1",
"l c #E6E6E6",
"z c gray91",
"x c gray93",
"c c #F1F1F1",
"v c #F6F6F6",
"b c #F9F9F9",
"n c white",
/* pixels */
"wxlllzlkkkkkkjhhhhhgfspurw071590951<<369qwtyipasffwkxzxxxlgdssdh",
"snnnnnnnnnnnnnnnnnnnnnnnnnnnlbnnnnnnnnnnnnnnnnnnnnannnnnnnnnnnnn",
"ujjjjhhhhhhhhjjkkkhgdfdsayee9097666761&=><34680qew7asasfdfgghhjk",
"zzxcxxcvcvcvlkbcvvxcccccxkgffggjjklkklxcvvbbbbvvbcvxzzxxxzzxzxxx",
"nnncvcxccxcvjhxzlzlklzbxkzxzccccccvvbbvvvcccxxxxxxxclcvcvvccxzcc",
"nnjadapaaasdsaaaiassfgxxghggiigsspiutw067765565566900929qewrtiey",
"nnnnnnnnnnnnnnnnnnnnnnbbnnnnvcnnnnnnnnnnnnnnnnnbbnbbbnvnnnnnnnzz",
"jkkkkxi5665rvcssy43322,>>::><1,>><1112123565600wrerewq9qe7risgap",
"dgghjlxbnnnnnnvvbbnnnnbnbbbcbvvvvcvvbvvchvvvnnnnnnnnnnnnnbgpsddf",
"nnnnnnzggghjhjkjlzklzxccvvvkvbbvvvcxxzkkfhhffdsddffgggghjxnnnnnn",
"uipasde9q0eww836532<1,1122234466556556668890wrtuiastupuyw9iuerrt",
"nnnnnnnnnnnnnzlnnnnnnnnnnnnnnnnnnnnnnnnnnnnnnnnnnnnccvvvvnnbbbbb",
"jjjljhaw8988944wwweweeeweerrererwqwwq907642,:>:;;--:>>126jzlzzzz",
"psfghhhgggggdfdssaaaapaaad@@#@dghgj@###jlllzflnnnnnnnnnnndyuiuii",
"vczljgdpiasdghjkjllllkklj#2245@apa@1444#aaaaupapsdfhjllxcbnnnnbb",
"0qryuipasputewew0wwq99639#,114#qq0@2244@999897508876654332;<2223",
"nnnnnnnnnnnnnnnnnnnnnncln#,,22@nnn@,,24@nnnnnvlnnnnnnnnnnnhxnnnn",
"aiiuute<,,<<47wuafjzzcjfc@,,,2@hgg#,,,2#ytrrwq9qwqqqwrryypetpiii",
"adghjkznnnvlhaye0887762,<2#,,@22344#,,@wetryyuuuuiiippppapiiipap",
"ryipasddaapiuuyyuyipsglvnn@,,#nnnnn#,,@nnnnnnbvvczljgfsaiiuttrw0",
"ssaiyrwqq000wer5rwq972<,,12@         #>>:::>>,,<1234680wryptpdsd",
"nnnnnnnnnnnnnnnxnnnnnnnnvx  OO.....oO  bnnnnnnnnnnnnnnnnnnnnnnnn",
"6566787777789weyiadhjlzcv .+@@O...OO++. twwq00878688898567335566",
"hwaggjjjjjhggfddssddffgj $$.++OO.OO@@.$$ fghhhhhhjaikklxvvzhjjkk",
"ngcnnnbbnnnnnnnnnnnnnnn $$$$.@@O.O@+.$%%$ nnnnnnbnvxczzkklxbnnnn",
"cusfp5><23333123335780 O+$$$$.@O.O@.$$$$+O paauyaappyeq86432knnn",
"jggzbnnnnbbbvczcuhxzxz O@@$$$.@OOO@.$$$@@O cvnzxnnnnnnnnnnnnncjk",
"fggtrrtignnnnnnnlfhhfg O@@@$$$.@O@.$%$@@@o tq98754556780qwwrwdjf",
"nnnljlklvnnnnnnnnvvcc $.O@+$$$.@O@.%$$@@O.$ hgfdddapsssdfggdaxnn",
"xs188763,,22223770rt @@$.O@+$$.@O@.%$@@O.$@@ yuuy3yeewqqqqeue9wa",
"nlsfdlxcccccxxccvvbn @+$.O@@$$%.O.$%$++O.$+@ nnnnunnnnnnnnzhggkx",
"lvvvbxxzzzzzzxxzlkkl .++$.O+@$%.O.%$@@O.$@+. jhfd5aggjkzzxvnnnnv",
"74<<<<369qrtyiasdaq $=.+$.O@@$$.O.$$@@O.$@.=$ aiuytreewq00985787",
"nnnnnnnnnnnnnnnnnxg +$.+$.O@@$%.O.$%@@O.$@.$@ nnnnnnnnnnnnnnxcnn",
"wrrw03123590wryupwt +$.+%.O@@$$.O.$$+@O.$@.$@ klllkjgfggdapprwww",
"ddsadgjlzzzxxzxzzzl .+.+%.O@@$$.O.$$+@O.$+.+. ccxcczkzxxlfaaasfg",
"bbnnnnbnbnbvbbbbbbbv .+=$.O@@$=.O.=$+@O.$=@. gvcvcxcccxxxcxzcbvv",
"autw0871555555555555 ++=$.O@@$=.O.=$++O.$=++ yipiuuuuuyiuytttqap",
"nnnnnnbjnnnnnnnnnnnn +=$.O@@+$=.O.=$++@O.$=+ nnnnnnnnnnnnnnnnxnn",
"8qetrwq8tttttttttrrrr =$oO@@$$=.O.=$$@@O.$= hgfdsapiuytuur953555",
"cczxhiiasdffffsauuutr $.O++@$==.O.==$+@@O.$ aasddffghgjkiflklxxx",
"nnnbvcxzxxvvnnnnzvnnnn o+++$$==.O.==$$++@O nnnnnnnnnnnnnxvncvnnn",
"56888531,:>>><<3335788 O@++$==.   .==$++@O pipiyyrryutw731>,<123",
"nnnnnnnnnnnnnngnnbbbvv O++$$=. &,& .=$$++O nnnbbvajzzzxcvbnnnnnn",
"uyuyyyyyyyyytt9hkzxxccc O$$=. &,2,& .=$$O kkjjjjkshjjklzksaaiiyt",
"sdffffspiyytrwq09655758q  @. &&,2,&* .+  fffgffgfsaaiuyyteu2epii",
"jjjllzxnnnnnnnnnnnnbnzbnnn  1,&&,&*,2  klkllllzzxxcvbbbbvcz0agfg",
"qq90887qwwq0978767777589996o1,&&,&&,2oiuipiiipiuuuyytu0907777790",
"nnnnnnnncbnnnnnnnnnnnnnnnnjno<,&&&,<onnnnnnnnnnnnnnnnnhbnnnnnnnn",
"lkkjhgfghhhghhjhhhjkkkkkhhdhho1<&,2oaappiuuuyyttrtyuip8ahkxcxcxx",
"5434867889989059wqwwtyyuyupppio<&2oddfghjlzxlcnbnnbbvxlg09>><<>,",
"nnnbnnnbcccvcbhxnnbvczkhdaiuytto1opsfhjkllzxjlxzzxxccvvnznnnnnnn",
"998853-:4221<>::>;;;><460rtqpaaioiyrwq9867656776888768764<<36877",
"jklxvbbvnnnnnnnnnnnnnnnnnnnnnnnnnnnnnnnnnnnnnnnnnnnnnnnnnbjdfgfg",
"hffdddptdsddaapiuuytwwq0897668900q00986656657890qwrtypadgxnnbzlk",
"ppiuuyttyeeeeettupessdddfggggggfde0ddgjkzxxcczljgd9qw870rscnlryy",
"nnnnnnnnnnnnnnnnnnxnnnnnnnnnnnnnnxjnnnnnnnnnnnnnnnxbnnnnnnnnnnnn",
"ddffggffaaiyre7etrew09dnbbnnnnnnvsijggfdaauuyrrw8886323350ruuuii",
"zlkjkjjklzzxvnhbnnnnnnnnnnnxzxxxzhgfggghhkzxxzllatxlklzcczkjkkkk",
"kjhfdspiyttrqewq0qqq0q08erwffsdddfffgghdaxnnnnnnbfjhkjjjlkkxzlll",
"jhhhhjjhhgdsapaasddfffdapafnnnnnnnnnnnnnnnnnnnnnnbcvcccxcxzzlkjg",
"nnnnnzbnnaeewwwt71q9qwwq0etrtypfjbnp96457668779qqqrtueiapsdfgghj",
"nnnnnpznnnnnnnnnkannnnnnnxfpagzcxnnfpgklzzzxxxcccccvvtcnbnnnnnnn",
"kfpyp5edfhkzxcccjqxkjkkkkzxczllfaggkklkkklzlzzzlljkjgwhggghjlzzz"
};
