/* XPM */
static char *_19ae0f0dfe44594c2dc44ca9a8357b4vVKtNBiO50ZRptUi[] = {
/* columns rows colors chars-per-pixel */
"64 64 56 1 ",
"  c black",
". c gray2",
"X c #090909",
"o c gray10",
"O c #2A2A2A",
"+ c #2D2D2D",
"@ c #323232",
"# c #343434",
"$ c #393939",
"% c #3E3E3E",
"& c #484848",
"* c #4B4B4B",
"= c gray31",
"- c #535353",
"; c #565656",
": c gray37",
"> c #626262",
", c #676767",
"< c gray42",
"1 c #6F6F6F",
"2 c #717171",
"3 c #777777",
"4 c gray47",
"5 c gray49",
"6 c #808080",
"7 c gray52",
"8 c #888888",
"9 c gray55",
"0 c gray57",
"q c gray58",
"w c gray60",
"e c #9F9F9F",
"r c #A2A2A2",
"t c #A4A4A4",
"y c gray66",
"u c #AFAFAF",
"i c #B2B2B2",
"p c #B4B4B4",
"a c #BBBBBB",
"s c gray",
"d c #C1C1C1",
"f c gray78",
"g c #CBCBCB",
"h c gray80",
"j c #D0D0D0",
"k c #D5D5D5",
"l c #DADADA",
"z c gainsboro",
"x c #E1E1E1",
"c c #E6E6E6",
"v c gray91",
"b c gray93",
"n c #F1F1F1",
"m c #F6F6F6",
"M c #F9F9F9",
"N c white",
/* pixels */
"tbcccvcxxxxxxzlllllkjgdaute048wew843369wrtipsdfgjjtxvbbvbvkhgghl",
"gNNNNNNNNNNNNNNNNNNNNNNNNNNNcMNNNNNNNNNNNNNNNNNNNNfNNNNNNNNNNNNN",
"azzzzllllllllzzxxxlkhjhgfpyywew0999094;:<3689qeryt0fgfhhhjkkllzx",
"vvbnbbnmnmnmcxMnmmbnnnnnbxkjjkkzzxcxxcbnmmMMMMmmMnnncbbbbvvbvbbb",
"NNNnmnbnnbnmzlbvcvcxcvMbxvbvnnnnnnmmMMmmmnnnbbbbbbnncnmnmmnnbvnn",
"NNzfhfdfffghgfffsfggjkbbklkksskggdsaite90098898899wwew6qrytuisyp",
"NNNNNNNNNNNNNNNNNNNNNNMMNNNNmnNNNNNNNNNNNNNNNNNMNMMNMNmNNNNNNNvv",
"zxxxxbs8998umnggp76655211<<134211344454568989eetyuuyreery0usgkfd",
"hkklzcbMNNNNNNmmMMNNNNMNMMMnMmmmmnmmMmmnlmmmNNNNNNNNNNNNNMkdghhj",
"NNNNNNvkkklzlzxzcvxcvbnnmmmxmMMmmmnbbvxxjlljjhghhjjkkkklzbNNNNNN",
"asdfghywreyttq69865342445556779988988999qqwetuiasfgiadaptwsayuui",
"NNNNNNNNNNNNNvcNNNNNNNNNNNNNNNNNNNNNNNNNNNNNNNNNNNNnnmmmmNNMMMMM",
"zzzczlftqwqqw77tttyyyyytyyuuyuyutrttrww09752<1<,,>><11459zvcvvvv",
"dgjklllkkkkkhjhggffdddfffhs7hhhklklzzzzzcccvjcNNNNNNNNNNNhpasass",
"mnvczkhdsfghklzxzccccxxczzf8gdfddfggggffffffadfdghjlzccbnMNNNNMM",
"erupasdfgdaiytytrrtrwe96wwtyeerrreqwwwwwwwwqw08ewq09987665,35556",
"NNNNNNNNNNNNNNNNNNNNNNncNNNNNNNNNNNNNNNNNNNNNmcNNNNNNNNNNNlbNNNN",
"fssaaiy3223370tafjzvvnzjnvvvcxzlkkhhffsspiuutrwrrrrrtuuppdyidsss",
"fhklzxvNNNmclfpyeqq0095245424345677<80wryiuppaaaasssddddfdsssdfd",
"upsdfghhffdsaappapsdgkcmMNNNNNNNNNNbNNNNNNNNNMmmnvczkjgfssaiiute",
"ggfsputrreeetyu8utrw0532331<2>---=;>:>11<<<1122345679qetupdidhgh",
"NNNNNNNNNNNNNNNbNNNNNNh1O                &hNNNNNNNNNNNNNNNNNNNNN",
"98990q00000qwtypsfhlzx;                o%%+9eeq0q9qqqwq890668899",
"ltfkkzzzzzlkkjhhgghjjs .%X    .%%260ixNzxN1alllllzfsxxcbmmvlzzxx",
"NknNNNMMNNNNNNNNNNNNNk 6NNNNNNNNNNr.2Nz.6N%kNNNNMNmbnvvxxcbMNNNN",
"nagjd813566664566680q6 6NNd%i6nNs0X>.6> .i%tffapffddpyrq9765xNNN",
"zkkvMNNNNMMMmnvnalbvbf 6Nj=6     XjNo  . o&hmNvbNNNNNNNNNNNNNnzx",
"jkkiuuiskNNNNNNNcjlljp 6NNNNjNNNNNNNx60NzN$0rwq0878890qerttuthzj",
"NNNczcxcmNNNNNNNNmmnnj =NNNNNNro +uNNNNNNN plkjhhhfdggghjkkhfbNN",
"bg4qq096225555600euiaq %NNNNNd rr6 rNNNNNN eapaap6pyytrrrryaywtf",
"NcgjhcbnnnnnbbnnmmMNcr %NNNNN=2% jr xNNNNN kNNNNNaNNNNNNNNvlkkxb",
"cmmmMbbvvvvvvbbvcxxcga %NNNNNo2  dj=6NNNNN akzljh8fkkzxvvbmNNNNm",
"07333369wruipsfghftkzj %NNNNN.uX % %6NNNNN afhgsapiyyytreewq80q0",
"NNNNNNNNNNNNNNNNNbkNNd %NNNNN%dxid0 6NNNNNoyNNNNNNNNNNNNNNNNbnNN",
"tuute64568wetupadtujh8 %NNNNN%bns66oiNNNNN%8zxxcccczkjkkhfdduttt",
"hhgfhkzcvvvbbvbvvvvcz6 $NNNNN9%%260>bNNNNN6<bjnnbbnvxvbbcjfffgjk",
"MMNNNNMNMNMmMMMMMMMmn2 &NNNNNNNNNNNNNNNNNNiOnkmnmnbnnnbbbnbvnMmm",
"faiteq048888888888888$ 6NNNNNNNNNNNNNNNNNNh spsdssaaaapsapiiirfd",
"NNNNNNMzNNNNNNNNNNNNNO 6NNNNNNNNNNNNNNNNNNN kNNNNNNNNNNNNNNNNbNN",
"qryiutrqiiiiiiiiiuuui  6NNNNNNNNNe=%%2iNNNN pkjhgfdsapiaauw86888",
"nnvblssfggjjjjgfaaaiu  6NNNNNNNNNNNNbdNNNNN tfghhjjklkzxsjcxcbbb",
"NNNMmnbvnbmmNNNNvmNNN  =z-% +jNNNNsdddNNxs2 kNNNNNNNNNNNbmNnmNNN",
"89qqq8641<1113366680q@ +dhddi6>%           #ddsppuupait064123456",
"NNNNNNNNNNNNNNkNNMMMmq         +%>2%=+     kNNMMmfzvvvbnmMNNNNNN",
"apapppppiiipiiekxvbbnmpO                -rhzxzzzxglzzxcvxgffsspi",
"ghjjjjgdsapiurrew988080r861<=&=&=---47ufhjkjjjjkjgffsappiya5ydss",
"zzzccvbNNNNNNNNNNNNMNvMNNNNNNNNNNMmnvvcxcxccccvcbbnmMMMMmnvefkjk",
"rrweqq0rttrew0q0900008qwww7wrryyyuuuppasdsssddssaappiaewe00000we",
"NNNNNNNNnMNNNNNNNNNNNNNNNNzNNNNNNNNNNNNNNNNNNNNNNNNNNNlMNNNNNNNN",
"cxxzlkjklllkllzlllzxxxxxllhlljjkhghfffddsaaappiiuipasdqflxbnbnbb",
"8767q90qqwwqwe8wtrttippapaddssfffggghjklzcvbcnNMNNMMmbckew113312",
"NNNMNNNMnnnmnMlbNNMmnvxlhfsapiiipsdgjlzxccvbzcbvvbbnnmmNvNNNNNNN",
"wwqq86><755431<<1,,,1379euirdffsssputrwq90989009qqq09q0973369q00",
"zxcbmMMmNNNNNNNNNNNNNNNNNNNNNNNNNNNNNNNNNNNNNNNNNNNNNNNNNMzhjkjk",
"ljjhhhdihghhgfdsaapittreqw099qwewreewq9989980qwertuipdfhkbNNMvcx",
"ddsaapiipyyytyiiadygghhhjkkkkkkjjyehhkzxvbbnnvczkhwrtq0eugnNcupp",
"NNNNNNNNNNNNNNNNNNbNNNNNNNNNNNNNNbzNNNNNNNNNNNNNNNbMNNNNNNNNNNNN",
"hhjjkkjjffspuy0yiuytewhNMMNNNNNNMgszkkjhffaapuutqqq965668euaaass",
"vcxzxzzxcvvbmNlMNNNNNNNNNNNbvbbbclkjkkkllxvbbvccfibcxcvnnvxzxxxx",
"xzljhgdspiiurytrerrrereqyutjjghhhjjjkklhfbNNNNNNMjzlxzzzcxxbvccc",
"zllllzzllkhgfdffghhjjjhfdfjNNNNNNNNNNNNNNNNNNNNNNMnmnnnbnbvvcxzk",
"NNNNNvMNNfyyttti04rwrttreyiuipdjzMNdw978099q00wrrruiaysfdghjkklz",
"NNNNNdvNNNNNNNNNxfNNNNNNNbjdfkvnbNNjdkxcvvvbbbnnnnnmminNMNNNNNNN",
"xjdpd8yhjlxvbnnnzrbxzxxxxvbnvccjfkkxxcxxxcvcvvvcczxzktlkkklzcvvv"
};
