/* XPM */
static char *b33ed84078884fcfe0b63057422a434avpHeBtb2douBAmmp[] = {
/* columns rows colors chars-per-pixel */
"64 64 64 1 ",
"  c black",
". c gray2",
"X c #090909",
"o c gray5",
"O c #111111",
"+ c gray9",
"@ c gray10",
"# c #1D1D1D",
"$ c #222222",
"% c gray14",
"& c #2A2A2A",
"* c #2D2D2D",
"= c gray19",
"- c gray21",
"; c gray23",
": c gray24",
"> c #434343",
", c #464646",
"< c #494949",
"1 c gray30",
"2 c #535353",
"3 c gray34",
"4 c gray35",
"5 c gray36",
"6 c gray38",
"7 c #646464",
"8 c DimGray",
"9 c #6D6D6D",
"0 c #727272",
"q c #777777",
"w c #7B7B7B",
"e c #7C7C7C",
"r c #808080",
"t c gray52",
"y c #888888",
"u c gray55",
"i c gray57",
"p c gray58",
"a c gray60",
"s c #9F9F9F",
"d c #A2A2A2",
"f c #A4A4A4",
"g c gray66",
"h c #AFAFAF",
"j c gray70",
"k c #B6B6B6",
"l c #BBBBBB",
"z c gray",
"x c #C1C1C1",
"c c gray78",
"v c #CBCBCB",
"b c gray80",
"n c #D0D0D0",
"m c #D5D5D5",
"M c #DADADA",
"N c gainsboro",
"B c #E1E1E1",
"V c #E6E6E6",
"C c gray91",
"Z c gray93",
"A c #F1F1F1",
"S c #F6F6F6",
"D c #F9F9F9",
"F c white",
/* pixels */
"fZVVVCVBBBBBBNMMMMMmnvxlhfsiwypsaywqqeusdfjklxcvnnfBCZZCZCmbvvbM",
"vFFFFFFFFFFFFFFFFFFFFFFFFFFFVDFFFFFFFFDFFFFFFFFFFFcFFFFFFFFFFFFF",
"lNNNNMMMMMMMMNNBBBMmbnbvckggasapuuiiuw459qryupsdgficvcbbbnmmMMNB",
"CCZAZZASASASVBDASSZAAAAAZBmnnmmNNBBBBVZASSDDDDSSDAAAVZZZZCCZCZZZ",
"FFFASAZAAZASNMZCVCVBVCDZBCZZAAAAAAASDSSSSAAAZZZZZZAAVASASSAAZZZA",
"FFNcbcxcccvbvccczcvvnmZZmmmmzzkgghzljfdupuuyyyyyuuaasarpdfghjlgk",
"FFFFFFFFFFFFFFFFFFFFFFDAbs9*        *0ukBFFFFFFDFDDFDFSFFFFFFFCC",
"NBBBBZzyuuyhSAvvktrre8;                  $5eusdfghhgdssdgphzcmcx",
"bmmMNVZDFFFFFFSSSDFSi                       uZFFFFFFFFFFFDmcvbnb",
"FFFFFFCmmmMNMNBNVVv:            X+O+          tbbbnmmmmMMZFFDFFF",
"lzxcvbgadsgffpruywO      o=:4   -77786,*.      >gcvjlxlkfszkghhj",
"FFFFFFFFFFFFFCVFm*    .->&. :O  &55556677,+     *BFAASSASFFDDDDD",
"NNNVNMcfpappattw    O,:X.%<43O  %43341@=37;      X2890weuNCVCCZC",
"xvnmMMMmmmmmbna     $.o:3321:X  o%%:>33>oO   #    *BFFFFFbkllllz",
"SACVNMbxzcvbml   @.  :31*@            O=2o  @7>    %mBCZADFFFFDD",
"sfgklzxccxkhs@  $2   *+                     .17>    ,ytrre8qeeer",
"FFFFFFFFFFFF5  #: ;             O..        @- 1:     bFFFFmZFFFF",
"czzlkkgq000<  $;X<O      +%=*%  %%&&*#      $=  2-   *hkkzgjxzzz",
"vbmMNBCFFFc  X-+>      &&#=X          X      o  37@   pxcxxzzxcx",
"hjzxcbbbcz#  2*<    o  XX.                    +%X56   -czlkkjhfd",
"vvczkhfdd6  &64    $o                          *+$7,   uhkxjzbbb",
"FFFFFFFFZ   55@   %        .Xo+OX               : <7+  uFFFFFFFF",
"uuuuiiii2   ;>   &        @o.                   X&O61   tirryuuu",
"MfcmmNNb        #                      X         * 27.  lSCMMNBB",
"FmAFFFDf  #;    $                                 O=6;  eVZDFFFF",
"Alvnxy9#  :6%                              X      o+5*  +tteBFFF",
"NMnCDFB   55$                              +             BFFFABN",
"bnmkhj9  +65O                               +       +;&  wfgfbNn",
"FFFVMV2  =64o                                       561  rmbcZFF",
"Zbwppp   >64                                  .     468  ,glhpfx",
"FVvnbx   <54                                  @     467o <CMmmBA",
"VSSSSk    #,o                                 o.    >68+  SFFFFS",
"itqqq1   1+                               O         -58*  aayiau",
"FFFFFg   7,=.                             @         &67-  FFZZFF",
"fhhfs2   7<&%                                    X  &68=  xzjfff",
"bbvcbu   7,%;    .                               #  &68=  vccvnm",
"DDFFFg   63##                                   .$  &68-  CCZDSS",
"cljfs6   =O                               O         *78-  kjjdcx",
"FFFFFx                                   o          O<9# *FFFZFF",
"pdgjhy      =:    o                      X            +  <syeyyy",
"AZCZMz    ,O53o    @                           .-        rVBVZCA",
"FFFDSA7   ,*>4:                                &1.       zFZDFFF",
"yupppy5   +,=53o     .                         12   6,   99qqwer",
"FFFFFFZ    1@5%     +                         ;1;  O80+ 4DFFFFFF",
"klkkkkj1   ++X       $o      . X             &<2$  =97  svcclzkj",
"vbnnnnva         o    +.           X+O      .,24.  40$  gglegxzz",
"NNNVVCCF0      X<2@      . .   .  #+          =<  .03  uDACsvmnn",
"ddasppify     .5543=          .o         O@    o  *9   usiiiiias",
"FFFFFFFFAa     $7553>X                 X=<<.      3O  iDFFFFFFFF",
"VVBNMmnmMn1     $6653@               @;<123#     o&  ,pcMBZAZAZZ",
"ytetpuipaay@     X362  =,&@o    X  &<112,$X*O       &NVmsa90q09q",
"FFFFFFFDAASm&      -&  %%-:112111  O;%+o$<66=      &mSSFCFFFFFFF",
"appiur68teww8@        ;65,:&%#oOo   =,35677=      +eipiutwqrupii",
"NBCZADDSFFFFFS0        %>66555444*  ,6664=.      <BFFFFFFSNbnmnm",
"Mnnbbbzjbvvvccxe#         +*>3666<  %:&o        1dhjkzcbmCFFDCVB",
"xxzllljjkgghfgjjh8             XOo            >lmbasfpisjbAFVhkk",
"FFFFFFFFFFFFFFFFDFNu                        0xFFFFZDFFFFFFFFFFFF",
"bbnnmmnncczlhfpgjhhdaq7                  ,thkhhdpppurerrysjklkzz",
"CVBNBNNBVCCASFMDFFFFFFFFMge8        58ulnBCZZCVVcjZVBVCZACBBBBBB",
"BNMnbvxzkhjgdgfssdddsdspghfnnbbbnnnnmmMbcZFFFFFFDnNMBNNBBBVCCVCC",
"NMMMMNNMMmbvccxccbbnmbbvccnFFFFFFFFFFFFFFFFFFFFFFDASSAAAAZCCVBNm",
"FFFFFCDFFcggfffjiwdadfddsfjhjkxnNDFxautyiuupiiadddhjkgzxxvbnmmMN",
"FFFFFxCFFFFFFFFFBcFFFFFFFZnxcmCAZFFnxmBVCCCZZZAAAAASSjAFDFFFFFFF",
"BbxkxygbnMBCZAAANdZBBNBBBVZACVVncmmNVVBBBVCVCCVVVBNNmfMmmmMNVCCC"
};
