/* XPM */
static char *_5e92916dc8f498cb6e9c6c78a3bd5b5KC40s178w8iq5wCo[] = {
/* columns rows colors chars-per-pixel */
"64 64 62 1 ",
"  c black",
". c gray2",
"X c #090909",
"o c gray5",
"O c gray8",
"+ c gray10",
"@ c #1D1D1D",
"# c #222222",
"$ c gray14",
"% c #2A2A2A",
"& c #2D2D2D",
"* c gray21",
"= c gray23",
"- c gray24",
"; c gray25",
": c #464646",
"> c #484848",
", c gray31",
"< c #535353",
"1 c gray34",
"2 c gray35",
"3 c gray37",
"4 c #606060",
"5 c gray40",
"6 c DimGray",
"7 c #6D6D6D",
"8 c #727272",
"9 c #777777",
"0 c #7B7B7B",
"q c gray50",
"w c #808080",
"e c gray52",
"r c #888888",
"t c gray55",
"y c gray57",
"u c gray58",
"i c gray60",
"p c #9F9F9F",
"a c #A2A2A2",
"s c #A4A4A4",
"d c gray66",
"f c #AFAFAF",
"g c gray70",
"h c #B6B6B6",
"j c #BBBBBB",
"k c gray",
"l c #C1C1C1",
"z c gray78",
"x c #CBCBCB",
"c c gray80",
"v c #D0D0D0",
"b c #D5D5D5",
"n c #DADADA",
"m c gainsboro",
"M c #E1E1E1",
"N c #E6E6E6",
"B c gray91",
"V c gray93",
"C c #F1F1F1",
"Z c #F6F6F6",
"A c #F9F9F9",
"S c white",
/* pixels */
"sVNNNBNMMMMMMmnnnnnbvxljfspy0rupir099qtiasfhklzxvvsMVBVVVNbcxxcn",
"xSSSSSSSSSSSSSSSSSSSSSSSSSSSNASSSSSSSSSSSSSSSSSSSSzSSSSSSSSSSSSS",
"jmmmmnnnnnnnnmmMMMnbcvcxzhddipiuttyyrq1379wrtupadsyzzzcccvbbnnmM",
"BBVCVVCZCZCZNMACZZVCCCCCVMbvvbbmmMMMMMVCZZAAAAZZACZVNVVVVBBVBVVV",
"SSSCZCVCCVCZmnVBNBNMNBAVMBVVCCCCCCCZAZZAZCCCVVVVVVVCNCZCZZCCVVVC",
"SSmzczlzzzxcxzzzkzxxvbVVbbbbkkhddfkjgsptuttrrrrrttippiqiasdfgjdh",
"SSSSSSSSSSSSSSSSSSSSSSACcp7&        &8thMSSSSSSAASAAASZSSSSSSSBB",
"mMMMMVkrttrfZCxxhewqq6=                  #3qtpasfdfdsaiadufkzbzl",
"cbbnmNVASSSSSSZZZASZy                       tVSSSSSSSSSSSAbzxcvc",
"SSSSSSBbbbnmnmMmNNx-                          rcccvbbbvnnVSSASSS",
"jklzxcdiapdssuwtr0O                            ;dzxgjzjhspkhdffg",
"SSSSSSSSSSSSSBNSb&             -                &MSVCZZCZSSAAAAA",
"mmmNmnzsiuiuiee0          <q+  ,yllgw-X          X<6780qtmBNBBVB",
"lxvbnnnvbbbbcvi        .8k,        &wlm<          &MSSSSSchjjjjk",
"ZCBNmnclklxcbh        qm4                 4        $bMNVCASSSAAA",
"psdhjklzxlhfp+      -Mg.                  &l&       :rewqq59qqqw",
"SSSSSSSSSSSS2      wC4                     &M-       cSSSSbVSSSS",
"zkkjhhd9888:      8M&       +----<www,      3S,      &fhhkdglkkk",
"xcbnmMBSSSz     X8 .      .aSSSSSSSSSSy      8C&      yzzllkjlzl",
"fgklzcccxj@    .vS&      wVSSSSSSSSSSSSa      kM.     *zkjhhgfsa",
"xxzkhfsaa4    XvS4     ,MSSSvllllgwwwwww-     .Cg      rfhlglccc",
"SSSSSSSSV     aSa    +llwww8----------;www.    -S-     ySSSSSSSS",
"ttttyyyy,    ,SM.   ySSSSSSSSSSSSSSSSSSSSSvX    wv      eywwrttt",
"nszbbmmc    XCC&   3SSSSSSSSSSSSSSSSSSSSSSSvX   X+      jZBnnmMM",
"SbCSSSAs    wS4   Xwwwww4;---+    &--vSS----+           qNVASSSS",
"Cjxvlr7+   XVl   XwwwwwewwwwwwwylllCSSSSlllllg.   y&    OewqMSSS",
"mnvBASM    .a-   aSSSSSSSSSSSSSSSSSSSSSSSSSSSSl   yt     MSSSCMM",
"cvbhfg7    X    wSSSSSSSSSSSSSSSSSSSSSSSSSSSSSS   wM     0sdscnv",
"SSSNnN<   +v+  &SSSSSSSSSSSSSSSSSSSSSSSSSSSSSSS   -S&    wbczCSS",
"Vc0uuu    4S-   SSSSSSSSSSmllllllllSSSSSSSSSSSS%  &C8    :djdusz",
"SNxvcl    yS-  X-&                         ----X   4a    >BnbbMV",
"NZZZZh    lS-  4lllCSSMllllllllllyewwwwwewwwwwa4   -l     ZSSSSZ",
"ye998,    vS;  wSSSSSSSSSSSSSSSSSSSSSSSSSSSSSSSw   %l     iiryit",
"SSSSSd    SS-  wSSSSSSSSSSSSSSSSSSSSSSSSSSSSSSSw   .S     SSVVSS",
"sfddp1    SS-  eSSSSSSSSSSSSSSSSSSSSSSSSSSSSSSS+   lM     lkgsss",
"ccxzct    vS-  wSSSSSSCllSSSSSSSSSSSSSSSSSSSSSg   +Sl     xzzxvb",
"SASSSd    lS-  wSSSlwwwwwwwwwww,--8-----<wwwww&   -Sl     VBVAZZ",
"lkgsp4    aS-  wSSSSSSSSSSSSSSSSSSSSSklyww4-;-    %Sw     gggazl",
"SSSSSl    8S;  wSSSSSSSSSSSSSSSSSSSSSSSSSSSSSw     --    &SSSVSS",
"uadgfr    &S-  wSSSSSSSSSSSSSSSSSSSSSSSSSSSSS+   &.      >irqrrr",
"CVBVnk     v,  &SSSSSSSSSSSSSSSSSSSSSSSSSSSSa   &CC-     wNMNVVV",
"SSSAZC5    X    &8wwwwwwwwwwwlllSSSSSSCkllkg   XmSS-     kSVASSS",
"rtuuyr3    XM+   &w4---------,wwSSSS------%    ySSl      77990qw",
"SSSSSSV     pv    aSSSSSSSSSSSSSSSSSSSSSSS-   -SSS-   X 2ASSSSSS",
"hjhhhhh>    XCy    aSSSSSSSSSSSSSSSSSSSSS8    vSSg      pzzzjjhg",
"xcvvvvxi     ,S3    yMSSSSSSSSSllyw<-& .-    wSSM.   o  fdjqdlkk",
"mmmNNBVS8     yC&        -&                 -SSC&   X  tZVBpzbvb",
"aaipuuyar      pC&            %4ww-&       XCSC&       tpyyyyyip",
"SSSSSSSSCi O    aV&           -w-          ,SC&    .  yASSSSSSSS",
"NNMmnbvbnv,      4+ w+                      8X    O  :uznMVCVCVV",
"reqeutyuiir+       &SSg4X             -8gkX         %nNbpi789879",
"SSSASSSACCZb%       -gSSScgw-  -wwwlvSSSMwX        %bZZSBSSSSSSS",
"iiuytw56e0q06+        +8lSSSw  lSSSSSMp<          Owtuyte09wtuyy",
"nMBVCAACSSSSSZ8           -4-  yaww-+            >MSSSSSSZmcvbvb",
"nvvccckgcxccxzlq@                               ,afghkzcbBSSABNM",
"llkjjjgghdddsdfgf6                            ;jvvipsuyagcCSNfhh",
"SSSSSSSSSSSSSSSSASmt                        8lSSSSVASSSSSSSSSSSS",
"ccvvbbvvxlkhfdydgffai95                  :efhffauyutwqwwrpghjhkk",
"BNMmMmmMNBVCZSnASSSSSSSSbdq6        26tjvMBVVBNNzhVNMMBVCBMMMMMM",
"MmnvcxlkhffdadsapaaapapudfsvvccccvbvbbnczVSSSSSSZvmnMMmMMMNBBNBB",
"mnnnnmmnnbcxzlzzzccvbccxzzvSSSSSSSSSSSSSSSSSSSSSSACZZCCCCVBBNMmb",
"SSSSSBASSzddsssgy0aiasaapsggghlvmASliteryttuyyiaaafghdkllxcvbbnm",
"SSSSSlBSSSSSSSSSMzSSSSSSSVvlzbBCVSSvlbMNBBBVVVCCCCCZZgCSASSSSSSS",
"MclhlrdcvnMBVCCCmaVMMmMMMBVVBNNvzbbmMNNMMNBNBBNNNMmmbsnbbbnmNBBB"
};
