/* XPM */
static char *_674a88bfade45c7804ad319d610f0ccjB0NGJ1yMjTPxKpT[] = {
/* columns rows colors chars-per-pixel */
"64 64 55 1 ",
"  c #111111",
". c gray8",
"X c #1D1D1D",
"o c gray14",
"O c gray15",
"+ c #282828",
"@ c #2F2F2F",
"# c gray19",
"$ c #343434",
"% c #494949",
"& c #4B4B4B",
"* c #535353",
"= c gray33",
"- c gray35",
"; c gray37",
": c gray39",
"> c #676767",
", c gray42",
"< c #6F6F6F",
"1 c #717171",
"2 c #777777",
"3 c gray47",
"4 c gray49",
"5 c #808080",
"6 c gray52",
"7 c #888888",
"8 c gray55",
"9 c gray57",
"0 c gray58",
"q c gray60",
"w c #9F9F9F",
"e c #A2A2A2",
"r c #A4A4A4",
"t c gray66",
"y c #AFAFAF",
"u c #B2B2B2",
"i c #B4B4B4",
"p c #BBBBBB",
"a c gray",
"s c #C1C1C1",
"d c gray78",
"f c #CBCBCB",
"g c gray80",
"h c #D0D0D0",
"j c #D5D5D5",
"k c #DADADA",
"l c gainsboro",
"z c #E1E1E1",
"x c #E6E6E6",
"c c gray91",
"v c gray93",
"b c #F1F1F1",
"n c #F6F6F6",
"m c #F9F9F9",
"M c white",
/* pixels */
"rvxxxcxzzzzzzlkkkkkjhfspyrw937qwq732258qeruiasdfhhrzcvvcvcjgffgk",
"fMMMMMMMMMMMMMMMMMMMMMMMMMMMxmMMMMMMMMMMMMMMMMMMMMdMMMMMMMMMMMMM",
"pllllkkkkkkkkllzzzkjghgfdittqwq9888983=;,25780wetr9dfdggghjjkklz",
"ccvbvvbnbnbnxzmbnnvbbbbbvzjhhjjllzxzxxvbnnmmmmnnmbbbxvvvvccvcvvv",
"MMMbnbvbbvbnlkvcxcxzxcmvzcvcbbbbbbnnnmnnnbbbvvvvvvbbxbnbnnbbvcbb",
"MMldgdsdddfgfdddadffhjvvjkjjaajffsapurw89987787788qqwq50etryuati",
"MMMMMMMMMMMMMMMMMMMMMMmmMMMMnbMMMMMMMMMMMMMMMMMmMmmMmMnMMMMMMMcc",
"lzzzzva7887ynbffi655441<<,,<231<<233343457878wwrtyytewwet9yafjds",
"gjjklxvmMMMMMMnnmmMMMMmMmmmbmnnnnbnnmnnbknnnMMMMMMMMMMMMMmjsfggh",
"MMMMMMcjjjklklzlxczxcvbbnnnznmmmnnbvvczzhkkhhgfgghhjjjjklvMMMMMM",
"pasdfgtqewtrr05875423133444566887787788800qwryupadfupspirqaptyyu",
"MMMMMMMMMMMMMcxMMMMMMMMMMMMMMMMMMMMMMMMMMMMMMMMMMMMbbnnnnMMmmmmm",
"lllxlkdr0q00q66rrrtttttrttyytyttrerreqq08641,<,>>::,<<348lcxcccc",
"sfhjkkkjjjjjghgffddsssddd#$#$ggjkjll$##$xxxchxMMMMMMMMMMMgipapaa",
"nbcxljgsadfgjklzlxxxxzzx$4431#dssdf$1434$dddpsdsfghklxxvbmMMMMmm",
"weyipasdfsputrtreereqw85$3n+1#eeew0#1+n3$qq0q97w0098876554>24445",
"MMMMMMMMMMMMMMMMMMMMMMbx$6--6$MMMMM$6--7#MMMMnxMMMMMMMMMMMkvMMMM",
"daapput2112269rpdhlccblh#4666$lkjjg#6663#uyyreqereeeryyiistusaaa",
"dgjklzcMMMnxkditw00998412#3=$344566,$*4#tuyiippppaaassssdsaaasds",
"yiasdfggddsappiipiasfjxnMM$1#.......$1$MMMMMMmnnbcxljhfdaapuuyrw",
"ffdaiyreewwwrty7yreq942122#4$+XXXXX+$4#<,,,<<112345680wryisusgfg",
"MMMMMMMMMMMMMMMvMMMMMMMMn #41$+XXX+$14#.MMMMMMMMMMMMMMMMMMMMMMMM",
"878890999990qrtiadgklxcb.&$33#OOOO+#43#& rreww0908000q0789557788",
"krdjjlllllkjjhgggdfhhgj.&&$44O44434O44#&&.jkkkkkkldazzxvnnckllzz",
"MjbMMMmmMMMMMMMMMMMMMM.+@&O34311112343+&@+.MMMMMmMnvbcczzxvmMMMM",
"bpfhs7<24555534556799w.+@O4331111111344O#+.ssdpiddssite08654zMMM",
"ljjcmMMMMmmmnbcbpkvcvc.O#O3=121111111*3O@+.nmMcvMMMMMMMMMMMMMblz",
"hjjuyyuajMMMMMMMxhkkh &X+O=11=11111=11=O+X& rq097677890werryrglh",
"MMMxlxzxnMMMMMMMMnnb.#@&X$O1O1121111O1O#X&@@.jhgggdsfffghjjgdvMM",
"vf300985114444599wyu.@@&X$4O111111111O4$X&@@.ippi5ittreeeetptqrd",
"MxfhgxvbbbbbvvbbnnmM.X@#&$1441112111431$&#@X.MMMMpMMMMMMMMckjjzv",
"xnnnmvvccccccvvcxzz &;X@&X#13411111441$X&@X;&.khg7djjlzccvnMMMMn",
"96222258qeyuiadfgdr.@&X@&X$14411111431$X&@X&@ dapiutttrewwq07909",
"MMMMMMMMMMMMMMMMMck.@&X@&X$13311111441$X&@X&# MMMMMMMMMMMMMMvbMM",
"ryyrw53457qwryipsrt.X@X@&$1341114111431$&@X@X.xxxxxljhjjgdssyrrr",
"ggfdgjlxcccvvcvcccvz X@;&$4411123111144$&;@X hbbvvbczcvvxhdddfhj",
"mmMMMMmMmMmnmmmmmmmn.#@;#344211334111443$;@@ jnbnbvbbbvvvbvcbmnn",
"dpurw093777777777777.#;&$431113444411134#&;# iasaappppiapiuuueds",
"MMMMMMmlMMMMMMMMMMMMM ;&$123433-==343421#&;.MMMMMMMMMMMMMMMMMvMM",
"0etuyre0uuuuuuuuuyyyu.&O131443-==--344131O&.kjhgfdsapiuppyq75777",
"bbcvkaadfghhhhfdpppuyt.O34434==-=--=43443O.ssffgghhjkjlzahxzxvvv",
"MMMmnbvcvvnnMMMMcnMMMM O43344--=-=-=44434O.MMMMMMMMMMMMMvnMbnMMM",
"780007531,<<<225558900.O4434===-=--=-3442O.dssaiiyyipur953<12345",
"MMMMMMMMMMMMMMjMMmnmmbbO4344=--====-=4334OMMMMmmndlcccvbnmMMMMMM",
"pipiiiiiiiiiuuqkzcvvbbbbO42===-=-==-=-44ozzlzlllzfkllzxczfddaaiu",
"fghhhhfsaiiuyrewq877970eO2=---=-=-=-===3Ojjghhhjhfddapiiutp4tsaa",
"lllxxcvMMMMMMMMMMMMmMcmMMO==-=====-=-=-Ozzxxcxcxvvbnmmmmnbcwdjhj",
"eeqw009errewq9098999970qqqOOOOOO+OOOOOOasaaaasaappiiupwqw99999qw",
"MMMMMMMMbmMMMMMMMMMMMMMMMMlMMMMMMMMMMMMMMMMMMMMMMMMMMMkmMMMMMMMM",
"xzzlkjhjkkkjkklkkklzzzzzkkgkkhhjgfgdddssapppiiuuyuipas0dkzvbvbvv",
"765608900qq0qw7qrerruiipipssaadddfffghjklxcvxbMmMMmmnvxjwq<<22<1",
"MMMmMMMmbbbnbmkvMMmnbczkgdapiuuuiasfhklzxxcvlxvccvvbbnnMcMMMMMMM",
"qq0075:,64432<,,<>>><268wyuesddaaaiyreq0898789980009809862258099",
"lzxvnmmnMMMMMMMMMMMMMMMMMMMMMMMMMMMMMMMMMMMMMMMMMMMMMMMMMmlghjhj",
"khhgggsugfggddsappiurrew0q9880qwqewwq088788790qweryuisdgjvMMmcxz",
"ssappiuuitttttuupstffggghjjjjjjhhtwggjlzcvvbbcxljgqer09wyfbMxyii",
"MMMMMMMMMMMMMMMMMMvMMMMMMMMMMMMMMvlMMMMMMMMMMMMMMMvmMMMMMMMMMMMM",
"gghhjjhhddaiyt9tuytrwqgMmmMMMMMMmfaljjhgddppiyyr000854557wypppaa",
"cxzlzllzxccvnMkmMMMMMMMMMMMvcvvvxkjhjjjkkzcvvcxxduvxzxcbbczlzzzz",
"zlkhgfsaiuuyetreweeewew0tyrhhfggghhhjjkgdvMMMMMMmhlkzlllxzzvcxxx",
"lkkkkllkkjgfdsddfgghhhgdsdhMMMMMMMMMMMMMMMMMMMMMMmbnbbbvbvccxzlj",
"MMMMMcmMMdttrrru93eqerrewtuyuishlmMsq867988099qeeeyuptadsfghjjkl",
"MMMMMscMMMMMMMMMzdMMMMMMMvhsdjcbvMMhsjzxcccvvvbbbbbnnubMmMMMMMMM",
"zhsis7tghkzcvbbblevzlzzzzcvbcxxhdjjzzxzzzxcxcccxxlzljrkjjjklxccc"
};
