/* XPM */
static char *_f010f313b4b4c33babf747f4ecba94a3WpQlkz1bReCaFso[] = {
/* columns rows colors chars-per-pixel */
"64 64 55 1 ",
"  c #111111",
". c gray8",
"X c #1D1D1D",
"o c gray14",
"O c gray15",
"+ c #2A2A2A",
"@ c #2F2F2F",
"# c #323232",
"$ c #343434",
"% c #494949",
"& c #4B4B4B",
"* c #535353",
"= c gray33",
"- c #585858",
"; c gray37",
": c gray39",
"> c gray40",
", c #6A6A6A",
"< c #6F6F6F",
"1 c #717171",
"2 c #777777",
"3 c gray47",
"4 c gray49",
"5 c #808080",
"6 c gray52",
"7 c #888888",
"8 c gray55",
"9 c gray57",
"0 c gray58",
"q c gray60",
"w c #9F9F9F",
"e c #A2A2A2",
"r c #A4A4A4",
"t c gray66",
"y c #AFAFAF",
"u c #B2B2B2",
"i c #B4B4B4",
"p c #BBBBBB",
"a c gray",
"s c #C1C1C1",
"d c gray78",
"f c #CBCBCB",
"g c gray80",
"h c #D0D0D0",
"j c #D5D5D5",
"k c #DADADA",
"l c gainsboro",
"z c #E1E1E1",
"x c #E6E6E6",
"c c gray91",
"v c gray93",
"b c #F1F1F1",
"n c #F6F6F6",
"m c #F9F9F9",
"M c white",
/* pixels */
"rvxxxcxzzzzzzlkkkkkjhfspyrw9470wq732258qwtyiasdfhhrzvvvvvxjgffgk",
"fMMMMMMMMMMMMMMMMMMMMMMMMMMMxmMMMMMMMMMMMMMMMMMMMMdMMmMMMMMMMMMM",
"pllllkkkkkkkkllzzzkjghgfdittqwq9888983=;<25780wetr9dfdggghjjkklz",
"ccvbvvbnbnbnxzmbnnvbbbbbvzjhhjjllzxzxxvbnnmmmmnnmbbbxvvvvccvcvvv",
"MMMbnbvbbvbnlkvcxcxzxcmvzcvvbbbbbbnnnmnnnbbbvvcvvvbbxbnbnnbbvcbb",
"MMldgdsdddfgfdddadffhjvvjkjhaajffsapurw80887778888qqwq50etryuati",
"MMMMMMMMMMMMMMMMMMMMMMmmMMMMnbMMMMMMMMMMMMMMMMMmMmmMmMnMMMMMMMcc",
"lzzzzva7887ynbffi655441<<,<<22<<<233343458878wwrtyytewwet9yafjds",
"gjjklxvmMMMMMMnnmmMMMMmMmmmbmnnnnbnnmnnbknnnMMMMMMMMMMMMMmjsfggh",
"MMMMMMcjjjklklzlxczxcvbbnnnznmmnnnbvvczzhkkhhgggghhjjhjklvMMMMMM",
"pasdfgtqewtrr05875423133444566887787788800qwryiiadfupdpirqaptyyu",
"MMMMMMMMMMMMMcxMMMMMMMMMMMMMMMMMMMMMMMMMMMMMMMMMMMMvbnnnnMMmmmmm",
"lllxlkdr0q00q66rtttrtttrttyytytyrerreqq98641,<<>>::,<1348lcxcccc",
"sfhjkkkjjjjjghgf$#$dssddd###hggjkjklllllxxxchxMMMMMMMMMMMgipapaa",
"nbcxljgsadfgjkl$133#xzzx$134#sdssdffffddddddaadsfghklzcvbmMMMMmm",
"weyipasdfsputrt$4+b1$w85$3+b3#eeew0qqqqqqqq0q97wq098876554>24445",
"MMMMMMMMMMMMMMM$6--4#Mbx$6--6$MMMMMMMMMMMMMMMnxMMMMMMMMMMMkvMMMM",
"daapput2112269ri#673$blh$6664$lkjjggddapiuyyeeqeeeeeryyiistusaaa",
"dgjklzcMMMnxkfpte#$$88413$11$234566,70wetuyuiapppaaassssdsaaasds",
"yiasdfggddsapiiip#1$gjxnm$14$MMMMMMvMMMMMMMMMmnnbcxljhfdaapuuyrw",
"ffdaiyreewwwrty7y#1#952<3$3$66454..........<<112345680wryisusgfg",
"MMMMMMMMMMMMMMMvM$4#MMMM$14#zzz..OX%%%%@@@@.MMMMMMMMMMMMMMMMMMMM",
"878890999990qrtia#4$lzcb#31$cl.++X%%@@@@@%%%.e0908000q0789557788",
"krdjjlllllkjjhggg$1$hhjO$41#j.O+X%%#@@@@%%;;%.kkkldazzxvnnckllzz",
"MjbMMMmmMMMMMMMMM$1$OOO$41$M.+OX%%@@@@@%%;;;;%.MmMnvbcczzxvmMMMM",
"bpfhs7<2455553455$O=111331#y.+X%%@@#@#%%;;XXXXX.ddssite08654zMMM",
"ljjcmMMMMmmmnbOO$O*1134331$.+OX%%@#@#@%%;X@#@#@@.MMMMMMMMMMMMblz",
"hjjuyyuajMMMMMO41*1111**11$.+X%%@@@@@@%;X@@#%%%%@.77890werryrglh",
"MMMxlxzxnMMMMMMOO*2111O414#O+X%%@@@@@%%;X@@%%;;;%.sdfffghjjgdvMM",
"vf30098511444459O111111OO4#++X%@@@@@@%;X#@%%;XXX;@.rtreeeetptqrd",
"MxfhgxvbbbbbvvbbO111111334O+OX%@@@@@#%;X@@&%X%;;X;.MMMMMMMckjjzv",
"xnnnmvvccccccvvcO311111443O++X%@@@@##%;X##&%X@%;X%.jjlzccvnMMMMn",
"96222258qetupadf#4113144441.OX%#@#@@@%;X@@%%o@#%X%.yttrewwq07909",
"MMMMMMMMMMMMMMMM$4111133341.+X;%@@@@@%%X@@%%%X#%X%.MMMMMMMMMvbMM",
"ryyrw534580eryi$43111334441=.X;%@@@@#%%X@@#%;%XX%%.kjhjjgdssyrrr",
"ggfdgjlxccvvccc#41313444431=.X;%@@@@#%%X#@#%%;%%;%.xzcvvxhdddfhj",
"mmMMMMmMmmmmmmm$31114443441=-.;%%@@@#@%X@@@@%%;;%#.cbbvvvbvcbmnn",
"dpurw093777777$3411134343441-.;%%@@@@@%%X@@@#%%%#X.pppiapiuuueds",
"MMMMMMmlMMMMMM$4412134114341==.;%@@@@##%X#@@@@#@X%.MMMMMMMMMMvMM",
"0etuyre0uuuuui$34113411114432=.;%%@@@@#%%X@@@@#X%%.apiuppyq75777",
"bbcvkaadfghhhhO41114411111431=-.;%#@@@@@%%XXXXX%%.hjkjlzahxzxvvv",
"MMMmnbvcvvnnMMO411133211111441=.;%%#@@@#@%%%%%&%#.MMMMMMvnMbnMMM",
"780007531,<<12O3==-43411111142=-.;%%@@#@@@%%%%%@.yyipur953<12345",
"MMMMMMMMMMMMMMO=--=-=4341121131=.;;%%@@@@@##@##.nslcccvbnmMMMMMM",
"pipiiiiiiiiiuuO=-=-=-=-44111111==.;;%%#@#@@@@#%.zfkllzxczfddaaiu",
"fghhhhfsaiiuyreO--=-=-=-=--11211-=.;;%%%@@@@#%.1Ogddapiiutp4tsaa",
"lllxxcvMMMMMMMMMO=-=-==-**-===111=-..;;;%%%%%.111Obnmmmmnbcwdjhj",
"eeqw009errewq9089OOOOOOOOOOOOOOOOOOOO........OoOOO+iupwqw99999qw",
"MMMMMMMMbmMMMMMMMMMMMMMMMMlMMMMMMMMMMMMMMMMMMMMMMMMMMMkmMMMMMMMM",
"xzzlkjhjkkkjkklkkklzzzzzkkgkkhhjgfgdddssapppiiuuyuupas0dkzvbvbvv",
"765608900qq0qw7qrertuiipipssaadddfffghjklxcvxbMmMMmmnvxjwq<<22<1",
"MMMmMMMmbbbnbmkvMMmnbczkgdapiuuuiasfhklzxxcvlxvccbvvbnnMcMMMMMMM",
"qq0075:,64432<,,<>>><268wyuesddaaaiyreq0898789989009809862258099",
"lzxvnmmnMMMMMMMMMMMMMMMMMMMMMMMMMMMMMMMMMMMMMMMMMMMMMMMMMmlghjhj",
"khhgggsugfggfdsappiurrew0q9880qwqewwq088788790qwrryuiadgjvMMmcxz",
"ssappiuuitttrtuipstffggghjjjjjjhhtwggjlzcvvbbcxlhhqer00wyfbMxyii",
"MMMMMMMMMMMMMMMMMMvMMMMMMMMMMMMMMvlMMMMMMMMMMMMMMMvmMMMMMMMMMMMM",
"gghhjjhhddaiyt9tuytrwqgMmmMMMMMMmfaljjhgddppiyyr000854557wypppaa",
"cxzlzllzxccvnMkmMMMMMMMMMMMvcvvvxkjhjjjkkzcvvcxxduvxzxcbbczlzzzz",
"zlkhgfsaiuuyetreweeewew0tyrhhfggghhhjjkgdvMMMMMMmhlkzlllxzzvcxxx",
"lkkkkllkkjgfdsddfgghhhgdsdhMMMMMMMMMMMMMMMMMMMMMMmbnbbbvbvccxzlj",
"MMMMMcmMMdttrrru93eqerrewtuyuishlmMsq867988099qeeeyuptadsfghjjkl",
"MMMMMscMMMMMMMMMzdMMMMMMMvhsdjcbvMMhsjzxcccvvvbbbbbnnubMmMMMMMMM",
"zhsis7tghkzcvbbblevzlzzzzcvbcxxhdjjzzxzzzxcxcccxxlzljrkjjjklxccc"
};
