/* XPM */
static char *ac0af24add524741d24c299de8a18895dAdIgpRvVv3qmbt6[] = {
/* columns rows colors chars-per-pixel */
"64 64 54 1 ",
"  c #111111",
". c gray8",
"X c #1D1D1D",
"o c gray15",
"O c #282828",
"+ c #2F2F2F",
"@ c gray19",
"# c #343434",
"$ c #494949",
"% c #4B4B4B",
"& c #535353",
"* c #565656",
"= c gray35",
"- c gray37",
"; c gray39",
": c #676767",
"> c gray42",
", c #6F6F6F",
"< c #717171",
"1 c #777777",
"2 c gray47",
"3 c gray49",
"4 c #808080",
"5 c gray52",
"6 c #888888",
"7 c gray55",
"8 c gray57",
"9 c gray58",
"0 c gray60",
"q c #9F9F9F",
"w c #A2A2A2",
"e c #A4A4A4",
"r c gray66",
"t c #AFAFAF",
"y c #B2B2B2",
"u c #B4B4B4",
"i c #BBBBBB",
"p c gray",
"a c #C1C1C1",
"s c gray78",
"d c #CBCBCB",
"f c gray80",
"g c #D0D0D0",
"h c #D5D5D5",
"j c #DADADA",
"k c gainsboro",
"l c #E1E1E1",
"z c #E6E6E6",
"x c gray91",
"c c gray93",
"v c #F1F1F1",
"b c #F6F6F6",
"n c #F9F9F9",
"m c white",
/* pixels */
"eczzzxzllllllkjjjjjhgdaiteq8260q06211470weyupasdggelxccxcxhfddfj",
"dmmmmmmmmmmmmmmmmmmmmmmmmmmmznmmmmmmmmmmmmmmmmmmmmsmmmmmmmmmmmmm",
"ikkkkjjjjjjjjkkllljhfgfdsurr0q08777872*->14679qwre8sdsfffghhjjkl",
"xxcvccvbvbvbzlnvbbcvvvvvclhgghhkklzllzcvbbnnnnbbnvvvzccccxxcxccc",
"mmmvbvcvvcvbkjcxzxzlzxnclxcxvvvvvvbbnnbbbvvvccccccvvzvbvbbvvcxvv",
"mmksfsasssdfdssspsddghcchjhhpphddapiyeq7887667667700q049wretypru",
"mmmmmmmmmmmmmmmmmmmmmmnnmmmmbvmmmmmmmmmmmmmmmmmnmnnmnmbmmmmmmmxx",
"kllllcp6776tbvddu54433<,,>>,12<,,122232346767qqerttrwqqwr8tpdhsa",
"fhhjkzcnmmmmmmbbnnmmmmnmnnnvnbbbbvbbnbbvjbbbmmmmmmmmmmmmmnhadffg",
"mmmmmmxhhhjkjklkzxlzxcvvbbblbnnbbbvccxllgjjggfdffgghhhhjkcmmmmmm",
"ipasdfr0wqree94764312<223334557766766777990qetyipsdyiaiue0pirtty",
"mmmmmmmmmmmmmxzmmmmmmmmmmmmmmmmmmmmmmmmmmmmmmmmmmmmvvbbbbmmnnnnn",
"kkkzkjse9099055eeerrrrrerrttrtrteweew0087531:,,>:;;>,,237kxzxxxx",
"adghjjjhhhhhfgfddssaaasssfp5fffhjhjkk##@zzzxgz#@@mmmmmmmmfuipipp",
"bvxzkhfapsdfhjklkzzzzllzkks6dasaasdd#231@dsap#22<#gjkzzcvnmmmmnn",
"qwtuipasdaiyrerewwew0q7400erqqwwwq9#2bO2#009#<bO3#87765443:13334",
"mmmmmmmmmmmmmmmmmmmmmmvzmmmmmmmmmmm#5==5@mmm@2==5#mmmmmmmmjcmmmm",
"sppiiyr1<<1158eisgkxxvkgvxxzzlkjhhf@3656#ytt#355#ewwettuuaryappp",
"sfhjklxmmmbzjsurq998873<13112123455>@<<@ryyui@#@ipppaaaasapppasa",
"tupasdffssapiiuuiupadhzbnmmmmmmmmmmc#3<#mmmmm@<#vxzkhgdsppiyyteq",
"ddsputewwqqqert6tew984.. .. . . 3212<@3#>,>,,#<#234579qetuayafdf",
"mmmmmmmmmmmmmmmcmmmmm @@++%%%%Xo .ccb#2<@mmmm#2#mmmmmmmmmmmmmmmm",
"7677898888890erupsdj %%%+++++%%XO+.aa#<2#eeww@3#9799909678446677",
"jeshhkkkkkjhhgfffsd %--%%+@+++%%XOO.f#<3#ohjj@<#jkspllzcbbxjkkll",
"mhvmmmnnmmmmmmmmmm.%----%%+++++%%XOO.m#<3@ooo@<@mmbcvxxllzcnmmmm",
"vidga6,1344442344.XXXXX--%%+++++%%XO.d#<23<<<*o@asaaurw97543lmmm",
"khhxnmmmmnnnbvxv +@++++X-%$+++++%%XoO.@<2323<<&o#oommmmmmmmmmvkl",
"ghhyttyphmmmmmm.+%%%%+++X-%+++++@%%X+.@<<**<<<<&<2o6789qweetefkg",
"mmmzkzlzbmmmmmm.%---%%++X-$$+++++%%XOO#3<2o<<<<*ooasdddfghhfscmm",
"cd299874<<3333 @-XXX-%$++X-$++++++%XOO@2oo<<<<<<o4yrrewwwwrir0es",
"mzdgfzcvvvvvcc.-X--%X%%++X-$++++++%XOOO333<<<<<<oimmmmmmmmxjhhlc",
"zbbbnccxxxxxxc.%X-%+X%%++X-%++++++%XOOO223<<<<<2o6shhklxxcbmmmmb",
"851111470wtyip.%X$++X$%++X-$++++++%Xo.<2333<1<<3#uytrrewqq096898",
"mmmmmmmmmmmmmm.%X%+X$%$++X%%+++++%-Xo.<3232<<<<3@mmmmmmmmmmmcvmm",
"etteq423469wet.%$XX$-%+++X$$+++++%-X.*<22323<<<23@lkhghhfsaateee",
"ffdsfhkzxxcxcx %-$$-%%+++X$$+++++%-X.*<333322<<13#vxlxcczgsssdgh",
"nnmmmmnmnmnbnn.+%--$$++++X%+++++%%-.*=<223333<<<3@vvbccccvcxvnbb",
"siyeq982666666.X+%$$++++X%$+++++%%-.*<3333322<<<23@iiiupiuyyywsa",
"mmmmmmnkmmmmmm %X+++++++X$++++++%-.**<232<<33<<<33#mmmmmmmmmmcmm",
"9wrytew9yyyyyu.%$X+++++X$%+++++%$-.*<323<<<<33<<23#piuyiit064666",
"vvxcjppssfghggd.$$XXXXX$%++++++$- **<23<<<<<23<2<3ohjhklpgzlzccc",
"mmmnbvcxvcbbmmm.+%%%%$%%++++@+%%- =,33<<<<2<32<<<2ommmmmcbmvbmmm",
"67999642,>,,,113 +%%$$%++++++%%- **<3<<<<<<223***3ouiye842,<1234",
"mmmmmmmmmmmmmmhmm ++++++++++%%-- *11<<<<<323******oxxxcvbnmmmmmm",
"iuiuuuuuuuyuyyqhl.%@+++++++%%--.=*<<<<<<33********olklzxldssppuy",
"dfggggdaauuytwwqo< %+++++%%%--.**<<<<<*=*********odapiuuyri3rapp",
"kkkzzxcmmmmmmmmo<<<.%%%%%--- .**<<<*************ocvbnnnnbvxqshgh",
"ww0q998weewq08oooooo .  ... ooooooooooooooooooooiiuuyiq0q888880q",
"mmmmmmmmvnmmmmmmmmmmmmmmmmkmmmmmmmmmmmmmmmmmmmmmmmmmmmjnmmmmmmmm",
"zllkjhghjjjhjjkjjjkllllljjfjjgghfdfsssaapiiiuuyytyuipa9sjlcvcvcc",
"6545978990090q60eweeyuuiuiaappsssdddfghjkzxczvmnmmnnbczhq0,,11,<",
"mmmnmmmnvvvbvnjcmmnbvxljfspiuyyyupadgjklzzxckzcxxccvvbbmxmmmmmmm",
"009964;>53321,>>,:::,157qtywassppputew09787678879998798751147988",
"klzcbnnbmmmmmmmmmmmmmmmmmmmmmmmmmmmmmmmmmmmmmmmmmmmmmmmmmnkfghgh",
"jggfffayfdffssapiiuyeewq9087790q0wqq09776776890qwetyupsfhcmmnxzl",
"aapiiuyyurrrrryyiarddfffghhhhhhggrqffhklxccvvxzkhf0we99qtdvmztuu",
"mmmmmmmmmmmmmmmmmmcmmmmmmmmmmmmmmckmmmmmmmmmmmmmmmcnmmmmmmmmmmmm",
"ffgghhggssputr8rytreq0fmnnmmmmmmndpkhhgfssiiutte999743446qtiiipp",
"xzlklkklzxxcbmjnmmmmmmmmmmmcxccczjhghhhjjlxccxzzsyczlzxvvxlkllll",
"lkjgfdapuyytwrewqwwwqwq9rteggdfffggghhjfscmmmmmmngkjlkkkzllcxzzz",
"kjjjjkkjjhfdsassdffgggfsasgmmmmmmmmmmmmmmmmmmmmmmnvbvvvcvcxxzlkh",
"mmmmmxnmmsrreeey82w0weewqrytyuagknma07568779880wwwtyirpsadfghhjk",
"mmmmmaxmmmmmmmmmlsmmmmmmmcgashxvcmmgahlzxxxcccvvvvvbbyvmnmmmmmmm",
"lgaua6rfgjlxcvvvkwclkllllxcvxzzgshhllzlllzxzxxxzzklkhejhhhjkzxxx"
};
